<?xml version="1.0" encoding="utf-8"?>
<!-- Generator: Adobe Illustrator 24.2.1, SVG Export Plug-In . SVG Version: 6.00 Build 0)  -->
<svg version="1.1" id="Calque_1" xmlns="http://www.w3.org/2000/svg" xmlns:xlink="http://www.w3.org/1999/xlink" x="0px" y="0px"
	 viewBox="0 0 518 94" style="enable-background:new 0 0 518 94;" xml:space="preserve">
<style type="text/css">
	.st0{fill:#333333;}
	.st1{fill:#333333;fill-opacity:0;}
	.st2{fill:#0497D9;}
</style>
<g transform="translate(31.677187001681887,107.44184272759594)">
	<g transform="translate(0,0)">
		<g transform="translate(0, 0)">
			<g transform="scale(0.6799999999999997)">
				<path class="st0" d="M26.5-115c1.6-9.6-4.6-15.4-14.2-15.4H-8L-15-79.9H5.5c11.2,0,17.3-4.9,19.7-13c1.2-3.9,1.3-10.3-5.2-13.8
					C24-108.6,26.1-112.7,26.5-115z M2.1-110.6l1.3-9h7.4c6.4,0,4.9,9-1.3,9H2.1z M-0.6-91.1l1.4-10.3h7.4c7.5,0,6.3,10.3-1.4,10.3
					H-0.6z"/>
			</g>
		</g>
		<g transform="translate(20, 0)">
			<g transform="scale(0.6799999999999997)">
				<path class="st0" d="M25.3-118.3h22.2l1.7-12H14.1L7.1-79.9h35.1l1.6-12H21.6l1.1-7.6h20.4l1.6-11.3H24.2L25.3-118.3z"/>
			</g>
		</g>
		<g transform="translate(40, 0)">
			<g transform="scale(0.6799999999999997)">
				<path class="st0" d="M29.1-79.9h12.7l2.8-20.2l-0.1-9.8l0.3-0.1l3,10.1l8.6,19.9h12.9l7.1-50.4H63.7l-3.2,22.9l0.1,8.7l-0.3,0.1
					l-2.9-10.1l-9.2-21.5H36.2L29.1-79.9z"/>
			</g>
		</g>
		<g transform="translate(62, 0)">
			<g transform="scale(0.6799999999999997)">
				<path class="st0" d="M53.6-96.5C52-85,61.6-79.2,72.1-79.2c11,0,21.7-5.8,23.4-17.3l2.5-17.2c1.6-11.5-8.1-17.3-18.5-17.3
					s-21.6,5.7-23.3,17.3L53.6-96.5z M68.8-113.8c0.6-3.8,5.1-5.7,9.2-5.7s7.7,1.9,7.1,5.7l-2.5,16.9c-0.6,4-5.1,5.8-9.2,5.8
					c-3.9,0-7.6-1.8-7.1-5.5L68.8-113.8z"/>
			</g>
		</g>
		<g transform="translate(83, 0)">
			<g transform="scale(0.6799999999999997)">
				<path class="st0" d="M96.4-130.4H83.7l-7.1,50.4h12.7L96.4-130.4z"/>
			</g>
		</g>
		<g transform="translate(94, 0)">
			<g transform="scale(0.6799999999999997)">
				<path class="st0" d="M128.9-118.8l1.7-11.7H90.5l-1.7,11.7h13.6L97-79.9h12.9l5.3-38.8H128.9z"/>
			</g>
		</g>
		<g transform="translate(114, 0)">
			<g transform="scale(0.6799999999999997)">
				<path class="st0" d="M110.8-79.9"/>
			</g>
		</g>
		<g transform="translate(126, 0)">
			<g transform="scale(0.6799999999999997)">
				<path class="st0" d="M160.3-130.4h-11.6l-24.6,50.4h13.7l4.5-10.1h13.5l1.9,10.1h13.7L160.3-130.4z M146.7-101.4l5.6-14.7h0.5
					l1.5,14.7H146.7z"/>
			</g>
		</g>
		<g transform="translate(148, 0)">
			<g transform="scale(0.6799999999999997)">
				<path class="st0" d="M148.4-79.9h12.7l2.8-20.2l-0.1-9.8l0.3-0.1l3,10.1l8.6,19.9h12.9l7.1-50.4h-12.7l-3.2,22.9l0.1,8.7
					l-0.3,0.1l-2.9-10.1l-9.2-21.5h-12.1L148.4-79.9z"/>
			</g>
		</g>
		<g transform="translate(170.5, 0.7402688547331433)">
			<g>
				<g>
					<g>
						<rect x="117.8" y="-88.6" class="st1" width="37.5" height="32.7"/>
						<path class="st0" d="M138.3-55.9h17l-18.9-32.7L128-73.9C128-73.9,138.3-55.9,138.3-55.9z"/>
						<path class="st2" d="M124.8-68l-7,12.1h14L124.8-68z"/>
					</g>
				</g>
			</g>
		</g>
		<g transform="translate(196, 0)">
			<g transform="scale(0.6799999999999997)">
				<path class="st0" d="M201.4-88.3c3.9,6.1,11.3,9.1,17.4,9.1c10.9,0,19.4-4.9,21.3-14.7c2.3-12.5-6.2-15.9-15-17.5
					c-3.9-0.9-6.4-2.1-6.1-5.1c0.3-2.6,3-3.8,6.2-3.7c2.9,0.1,6.3,1.2,8.4,3.6l9.3-6.4c-4.3-6.3-10-8.1-16.2-8.1
					c-9.2,0-18.4,3.6-20.3,14c-1.8,9.5,5.3,15.9,13.3,17.2c4.1,0.6,8.5,1.9,7.9,5.1c-0.5,2.6-3.5,3.8-6.9,3.8c-3.8,0-8-1.6-10.2-4.8
					L201.4-88.3z"/>
			</g>
		</g>
		<g transform="translate(216, 0)">
			<g transform="scale(0.6799999999999997)">
				<path class="st0" d="M263.6-118.8l1.7-11.7h-40.1l-1.7,11.7h13.6l-5.3,38.8h12.9l5.3-38.8H263.6z"/>
			</g>
		</g>
		<g transform="translate(236, 0)">
			<g transform="scale(0.6799999999999997)">
				<path class="st0" d="M281.8-130.4h-11.6l-24.6,50.4h13.7l4.5-10.1h13.5l1.9,10.1h13.7L281.8-130.4z M268.2-101.4l5.6-14.7h0.5
					l1.5,14.7H268.2z"/>
			</g>
		</g>
		<g transform="translate(258, 0)">
			<g transform="scale(0.6799999999999997)">
				<path class="st0" d="M293.1-79.9l2.8-19.9l21.9-30.6h-15l-11.7,17.7l-6.5-17.7h-14.8l13.3,30.6l-2.8,19.9H293.1z"/>
			</g>
		</g>
	</g>
	<g transform="translate(5,26.141599655151367)">
		<rect x="-6.5" y="-62.5" class="st0" width="107" height="1.8"/>
		<rect x="353.4" y="-62.5" class="st0" width="107" height="1.8"/>
		<g transform="translate(64.10700988769531,0)">
			<g transform="scale(1)">
				<path class="st0" d="M41.7-56.9v-12.4h1.6v12.4H41.7z M46.4-56.9v-12.4H48l4.5,7.8l1.3,2.6h0.1c0-0.6-0.1-1.3-0.1-1.9
					c0-0.7-0.1-1.3-0.1-2l0,0v-6.4h1.5v12.4h-1.6l-4.5-7.8l-1.3-2.5h-0.1c0.1,0.6,0.1,1.3,0.1,1.9c0,0.7,0.1,1.3,0.1,2l0,0v6.5H46.4
					z M58.4-56.9v-12.4h7.1v1.3H60v4.2h4.7v1.3H60v5.6H58.4z M71.9-56.7L71.9-56.7c-0.8,0-1.5-0.2-2.1-0.5c-0.7-0.3-1.2-0.7-1.7-1.3
					c-0.5-0.6-0.8-1.2-1.1-2c-0.3-0.8-0.4-1.7-0.4-2.7l0,0c0-1,0.1-1.9,0.4-2.7c0.3-0.8,0.6-1.4,1.1-2c0.5-0.5,1-1,1.7-1.3
					c0.7-0.3,1.4-0.4,2.1-0.4l0,0c0.8,0,1.5,0.2,2.2,0.5c0.6,0.3,1.2,0.7,1.7,1.3c0.5,0.5,0.8,1.2,1.1,2c0.3,0.8,0.4,1.7,0.4,2.7
					l0,0c0,1-0.1,1.9-0.4,2.7c-0.3,0.8-0.6,1.5-1.1,2c-0.5,0.6-1,1-1.7,1.3C73.4-56.8,72.7-56.7,71.9-56.7z M71.9-58L71.9-58
					c0.6,0,1.1-0.1,1.5-0.4c0.5-0.2,0.8-0.6,1.2-1c0.3-0.4,0.6-1,0.8-1.6c0.2-0.6,0.3-1.3,0.3-2.1l0,0c0-0.8-0.1-1.5-0.3-2.1
					s-0.4-1.1-0.8-1.6c-0.3-0.4-0.7-0.8-1.2-1c-0.4-0.2-0.9-0.4-1.5-0.4l0,0c-0.5,0-1,0.1-1.5,0.4c-0.5,0.2-0.8,0.6-1.2,1
					c-0.3,0.4-0.6,0.9-0.8,1.6c-0.2,0.6-0.3,1.3-0.3,2.1l0,0c0,0.8,0.1,1.5,0.3,2.1c0.2,0.6,0.4,1.2,0.8,1.6c0.3,0.4,0.7,0.8,1.2,1
					C70.8-58.2,71.3-58,71.9-58z M81.2-68v4.6h2.1c1,0,1.7-0.2,2.2-0.6c0.5-0.4,0.8-1,0.8-1.8l0,0c0-0.8-0.3-1.4-0.8-1.7
					C85-67.8,84.3-68,83.3-68l0,0H81.2z M88.2-56.9h-1.8l-3-5.2h-2.3v5.2h-1.6v-12.4h3.9c0.6,0,1.2,0.1,1.8,0.2
					c0.5,0.1,1,0.3,1.4,0.6c0.4,0.3,0.7,0.6,0.9,1.1c0.2,0.4,0.3,1,0.3,1.6l0,0c0,1-0.3,1.7-0.8,2.3c-0.5,0.6-1.2,1-2,1.2l0,0
					L88.2-56.9z M90.4-56.9v-12.4h1.8l2.4,6.7l0.9,2.5h0.1l0.9-2.5l2.4-6.7h1.9v12.4h-1.5v-6.8c0-0.6,0-1.2,0.1-1.8
					c0-0.7,0.1-1.3,0.2-1.8l0,0h-0.1l-1,2.8L96-58.1h-0.9l-2.4-6.5l-1-2.8h-0.1c0,0.6,0.1,1.2,0.1,1.8c0.1,0.7,0.1,1.3,0.1,1.8l0,0
					v6.8H90.4z M105.5-61.9h3.7l-0.6-1.9c-0.2-0.7-0.4-1.4-0.6-2.1s-0.4-1.4-0.6-2.1l0,0h-0.1c-0.2,0.7-0.4,1.4-0.6,2.1
					c-0.2,0.7-0.4,1.4-0.6,2.1l0,0L105.5-61.9z M110.7-56.9l-1.2-3.8H105l-1.2,3.8h-1.6l4.2-12.4h1.8l4.2,12.4H110.7z M115.8-56.9
					v-11.1H112v-1.3h9.1v1.3h-3.7v11.1H115.8z M123.1-56.9v-12.4h1.6v12.4H123.1z M128.7-63.1L128.7-63.1c0,0.8,0.1,1.5,0.3,2.1
					c0.2,0.6,0.4,1.2,0.8,1.6c0.3,0.5,0.7,0.8,1.2,1c0.4,0.2,0.9,0.4,1.5,0.4l0,0c0.6,0,1.1-0.1,1.5-0.4c0.4-0.2,0.8-0.6,1.2-1
					c0.3-0.5,0.6-1,0.8-1.6c0.2-0.6,0.3-1.3,0.3-2.1l0,0c0-0.8-0.1-1.5-0.3-2.1c-0.2-0.6-0.4-1.1-0.8-1.6c-0.3-0.4-0.7-0.8-1.2-1
					c-0.4-0.2-0.9-0.4-1.5-0.4l0,0c-0.5,0-1,0.1-1.5,0.4c-0.5,0.2-0.8,0.6-1.2,1c-0.3,0.4-0.6,0.9-0.8,1.6
					C128.8-64.6,128.7-63.9,128.7-63.1z M137.7-55.3l0.3,1.2c-0.2,0.1-0.5,0.1-0.8,0.2c-0.3,0.1-0.7,0.1-1,0.1l0,0
					c-1.1,0-2.1-0.3-2.9-0.8c-0.8-0.5-1.3-1.2-1.7-2.1l0,0c-0.7-0.1-1.3-0.3-1.9-0.6c-0.5-0.3-1-0.8-1.4-1.3
					c-0.4-0.5-0.7-1.2-0.9-1.9c-0.2-0.7-0.3-1.6-0.3-2.5l0,0c0-1,0.1-1.9,0.4-2.7c0.3-0.8,0.6-1.4,1.1-2c0.5-0.5,1-1,1.7-1.3
					c0.6-0.3,1.4-0.4,2.1-0.4l0,0c0.8,0,1.5,0.2,2.2,0.5c0.6,0.3,1.2,0.7,1.7,1.3c0.5,0.5,0.8,1.2,1.1,2c0.3,0.8,0.4,1.7,0.4,2.7
					l0,0c0,0.9-0.1,1.7-0.3,2.5c-0.2,0.7-0.5,1.4-0.9,1.9s-0.8,1-1.4,1.3c-0.5,0.4-1.1,0.6-1.8,0.7l0,0c0.3,0.5,0.7,1,1.2,1.2
					c0.5,0.3,1.1,0.4,1.8,0.4l0,0c0.3,0,0.5,0,0.7-0.1C137.3-55.2,137.5-55.2,137.7-55.3L137.7-55.3z M140.1-62v-7.3h1.6v7.3
					c0,0.7,0.1,1.4,0.2,1.9c0.2,0.5,0.4,0.9,0.6,1.2c0.3,0.3,0.6,0.5,0.9,0.6c0.4,0.1,0.7,0.2,1.1,0.2l0,0c0.4,0,0.8-0.1,1.2-0.2
					s0.7-0.3,0.9-0.6c0.3-0.3,0.5-0.7,0.6-1.2c0.2-0.5,0.2-1.1,0.2-1.9l0,0v-7.3h1.5v7.3c0,1-0.1,1.8-0.4,2.5
					c-0.2,0.7-0.5,1.2-0.9,1.7c-0.4,0.4-0.9,0.7-1.4,0.9c-0.5,0.2-1.1,0.3-1.8,0.3l0,0c-0.6,0-1.2-0.1-1.8-0.3
					c-0.5-0.2-1-0.5-1.4-0.9c-0.4-0.4-0.7-1-0.9-1.7C140.2-60.2,140.1-61,140.1-62L140.1-62z M152.1-56.9v-12.4h7.1v1.3h-5.6v3.9
					h4.7v1.3h-4.7v4.5h5.8v1.3H152.1z M165.4-56.9v-12.4h7.1v1.3H167v3.9h4.7v1.3H167v4.5h5.8v1.3H165.4z M177.7-56.9v-11.1H174
					v-1.3h9.1v1.3h-3.7v11.1H177.7z M188.6-56.9v-12.4h3.1c1.9,0,3.4,0.5,4.4,1.6c1,1.1,1.5,2.6,1.5,4.6l0,0c0,1-0.1,1.9-0.4,2.6
					c-0.2,0.8-0.6,1.4-1.1,2c-0.5,0.5-1.1,0.9-1.8,1.2c-0.7,0.3-1.5,0.4-2.5,0.4l0,0H188.6z M190.2-58.2h1.4c1.4,0,2.5-0.4,3.3-1.3
					c0.7-0.9,1.1-2.1,1.1-3.7l0,0c0-1.6-0.4-2.8-1.1-3.6c-0.7-0.8-1.8-1.2-3.3-1.2l0,0h-1.4V-58.2z M204.6-56.7L204.6-56.7
					c-0.8,0-1.5-0.2-2.1-0.5c-0.7-0.3-1.2-0.7-1.7-1.3c-0.5-0.6-0.8-1.2-1.1-2c-0.3-0.8-0.4-1.7-0.4-2.7l0,0c0-1,0.1-1.9,0.4-2.7
					c0.3-0.8,0.6-1.4,1.1-2c0.5-0.5,1-1,1.7-1.3c0.6-0.3,1.4-0.4,2.1-0.4l0,0c0.8,0,1.5,0.2,2.2,0.5c0.6,0.3,1.2,0.7,1.7,1.3
					c0.5,0.5,0.8,1.2,1.1,2c0.3,0.8,0.4,1.7,0.4,2.7l0,0c0,1-0.1,1.9-0.4,2.7c-0.3,0.8-0.6,1.5-1.1,2c-0.5,0.6-1,1-1.7,1.3
					C206.1-56.8,205.4-56.7,204.6-56.7z M204.6-58L204.6-58c0.6,0,1.1-0.1,1.5-0.4c0.4-0.2,0.8-0.6,1.2-1c0.3-0.4,0.6-1,0.7-1.6
					c0.2-0.6,0.3-1.3,0.3-2.1l0,0c0-0.8-0.1-1.5-0.3-2.1s-0.4-1.1-0.7-1.6c-0.3-0.4-0.7-0.8-1.2-1c-0.4-0.2-0.9-0.4-1.5-0.4l0,0
					c-0.5,0-1.1,0.1-1.5,0.4c-0.4,0.2-0.8,0.6-1.1,1c-0.3,0.4-0.6,0.9-0.8,1.6c-0.2,0.6-0.3,1.3-0.3,2.1l0,0c0,0.8,0.1,1.5,0.3,2.1
					c0.2,0.6,0.4,1.2,0.8,1.6c0.3,0.4,0.7,0.8,1.1,1C203.5-58.2,204-58,204.6-58z M212.4-56.9v-12.4h1.8l2.4,6.7l0.9,2.5h0.1
					l0.9-2.5l2.4-6.7h1.9v12.4h-1.5v-6.8c0-0.6,0-1.2,0.1-1.8c0-0.7,0.1-1.3,0.1-1.8l0,0h-0.1l-1,2.8l-2.4,6.5H217l-2.4-6.5l-1-2.8
					h-0.1c0,0.6,0.1,1.2,0.1,1.8c0.1,0.7,0.1,1.3,0.1,1.8l0,0v6.8H212.4z M230.4-56.7L230.4-56.7c-0.8,0-1.5-0.2-2.1-0.5
					c-0.7-0.3-1.2-0.7-1.7-1.3c-0.5-0.6-0.8-1.2-1.1-2c-0.3-0.8-0.4-1.7-0.4-2.7l0,0c0-1,0.1-1.9,0.4-2.7c0.3-0.8,0.6-1.4,1.1-2
					c0.5-0.5,1-1,1.7-1.3c0.6-0.3,1.4-0.4,2.1-0.4l0,0c0.8,0,1.5,0.2,2.2,0.5c0.6,0.3,1.2,0.7,1.7,1.3c0.5,0.5,0.8,1.2,1.1,2
					c0.3,0.8,0.4,1.7,0.4,2.7l0,0c0,1-0.1,1.9-0.4,2.7c-0.3,0.8-0.6,1.5-1.1,2c-0.5,0.6-1,1-1.7,1.3
					C231.9-56.8,231.2-56.7,230.4-56.7z M230.4-58L230.4-58c0.6,0,1.1-0.1,1.5-0.4c0.4-0.2,0.8-0.6,1.2-1c0.3-0.4,0.6-1,0.7-1.6
					c0.2-0.6,0.3-1.3,0.3-2.1l0,0c0-0.8-0.1-1.5-0.3-2.1c-0.2-0.6-0.4-1.1-0.7-1.6c-0.3-0.4-0.7-0.8-1.2-1c-0.4-0.2-0.9-0.4-1.5-0.4
					l0,0c-0.5,0-1.1,0.1-1.5,0.4c-0.4,0.2-0.8,0.6-1.2,1c-0.3,0.4-0.6,0.9-0.7,1.6c-0.2,0.6-0.3,1.3-0.3,2.1l0,0
					c0,0.8,0.1,1.5,0.3,2.1c0.2,0.6,0.4,1.2,0.7,1.6c0.3,0.4,0.7,0.8,1.2,1C229.4-58.2,229.9-58,230.4-58z M240.4-56.9v-11.1h-3.7
					v-1.3h9.1v1.3h-3.7v11.1H240.4z M247.7-56.9v-12.4h1.6v12.4H247.7z M253.3-63.1L253.3-63.1c0,0.8,0.1,1.5,0.3,2.1
					c0.2,0.6,0.4,1.2,0.8,1.6c0.3,0.5,0.7,0.8,1.1,1c0.5,0.2,1,0.4,1.5,0.4l0,0c0.6,0,1.1-0.1,1.5-0.4c0.4-0.2,0.8-0.6,1.2-1
					c0.3-0.5,0.6-1,0.7-1.6c0.2-0.6,0.3-1.3,0.3-2.1l0,0c0-0.8-0.1-1.5-0.3-2.1s-0.4-1.1-0.7-1.6c-0.3-0.4-0.7-0.8-1.2-1
					c-0.4-0.2-0.9-0.4-1.5-0.4l0,0c-0.5,0-1.1,0.1-1.5,0.4c-0.4,0.2-0.8,0.6-1.1,1c-0.3,0.4-0.6,0.9-0.8,1.6
					C253.4-64.6,253.3-63.9,253.3-63.1z M262.3-55.3l0.3,1.2c-0.2,0.1-0.4,0.1-0.8,0.2c-0.3,0.1-0.7,0.1-1,0.1l0,0
					c-1.1,0-2.1-0.3-2.9-0.8c-0.8-0.5-1.3-1.2-1.7-2.1l0,0c-0.7-0.1-1.3-0.3-1.9-0.6c-0.5-0.3-1-0.8-1.4-1.3
					c-0.4-0.5-0.7-1.2-0.9-1.9c-0.2-0.7-0.3-1.6-0.3-2.5l0,0c0-1,0.1-1.9,0.4-2.7c0.3-0.8,0.6-1.4,1.1-2c0.5-0.5,1-1,1.7-1.3
					c0.6-0.3,1.4-0.4,2.1-0.4l0,0c0.8,0,1.5,0.2,2.2,0.5c0.6,0.3,1.2,0.7,1.7,1.3c0.5,0.5,0.8,1.2,1.1,2c0.3,0.8,0.4,1.7,0.4,2.7
					l0,0c0,0.9-0.1,1.7-0.3,2.5c-0.2,0.7-0.5,1.4-0.9,1.9c-0.4,0.5-0.8,1-1.4,1.3c-0.5,0.4-1.1,0.6-1.8,0.7l0,0
					c0.3,0.5,0.7,1,1.2,1.2c0.5,0.3,1.1,0.4,1.8,0.4l0,0c0.3,0,0.5,0,0.7-0.1C261.9-55.2,262.1-55.2,262.3-55.3L262.3-55.3z
					 M264.7-62v-7.3h1.6v7.3c0,0.7,0.1,1.4,0.2,1.9c0.2,0.5,0.4,0.9,0.6,1.2c0.3,0.3,0.6,0.5,0.9,0.6s0.7,0.2,1.1,0.2l0,0
					c0.4,0,0.8-0.1,1.2-0.2s0.7-0.3,0.9-0.6c0.3-0.3,0.5-0.7,0.6-1.2c0.2-0.5,0.2-1.1,0.2-1.9l0,0v-7.3h1.5v7.3c0,1-0.1,1.8-0.3,2.5
					c-0.2,0.7-0.5,1.2-0.9,1.7c-0.4,0.4-0.9,0.7-1.4,0.9c-0.5,0.2-1.1,0.3-1.8,0.3l0,0c-0.6,0-1.2-0.1-1.8-0.3
					c-0.5-0.2-1-0.5-1.4-0.9c-0.4-0.4-0.7-1-0.9-1.7C264.8-60.2,264.7-61,264.7-62L264.7-62z M276.7-56.9v-12.4h7.1v1.3h-5.6v3.9
					h4.7v1.3h-4.7v4.5h5.8v1.3H276.7z"/>
			</g>
		</g>
	</g>
</g>
</svg>
