<?xml version="1.0" encoding="utf-8"?>
<!-- Generator: Adobe Illustrator 24.2.1, SVG Export Plug-In . SVG Version: 6.00 Build 0)  -->
<svg version="1.1" id="Calque_1" xmlns="http://www.w3.org/2000/svg" xmlns:xlink="http://www.w3.org/1999/xlink" x="0px" y="0px"
	 viewBox="0 0 484.3 35.3" style="enable-background:new 0 0 484.3 35.3;" xml:space="preserve">
<style type="text/css">
	.st0{fill:#333333;}
	.st1{fill:#333333;fill-opacity:0;}
	.st2{fill:#0497D9;}
</style>
<symbol  id="Logo_Anastay" viewBox="-242.2 -17.6 484.3 35.3">
	<g transform="translate(31.677187001681887,107.44184272759594)">
		<g transform="translate(0,0)">
			<g transform="translate(0, 0)">
				<g transform="scale(0.6799999999999997)">
					<path class="st0" d="M-361.2-148.2c1.6,9.6-4.6,15.4-14.2,15.4h-20.3l-7-50.5h20.5c11.2,0,17.3,4.9,19.7,13
						c1.2,3.9,1.3,10.3-5.2,13.8C-363.7-154.6-361.6-150.5-361.2-148.2z M-385.6-152.6l1.3,9h7.4c6.4,0,4.9-9-1.3-9H-385.6z
						 M-388.3-172.1l1.4,10.3h7.4c7.5,0,6.3-10.3-1.4-10.3H-388.3z"/>
				</g>
			</g>
			<g transform="translate(20, 0)">
				<g transform="scale(0.6799999999999997)">
					<path class="st0" d="M-362.4-144.9h22.2l1.7,12h-35.1l-7-50.4h35.1l1.6,12h-22.2l1.1,7.6h20.4l1.6,11.3h-20.5L-362.4-144.9z"/>
				</g>
			</g>
			<g transform="translate(40, 0)">
				<g transform="scale(0.6799999999999997)">
					<path class="st0" d="M-358.6-183.3h12.7l2.8,20.2l-0.1,9.8l0.3,0.1l3-10.1l8.6-19.9h12.9l7.1,50.4H-324l-3.2-22.9l0.1-8.7
						l-0.3-0.1l-2.9,10.1l-9.2,21.5h-12L-358.6-183.3z"/>
				</g>
			</g>
			<g transform="translate(62, 0)">
				<g transform="scale(0.6799999999999997)">
					<path class="st0" d="M-334.1-166.7c-1.6-11.5,8-17.3,18.5-17.3c11,0,21.7,5.8,23.4,17.3l2.5,17.2c1.6,11.5-8.1,17.3-18.5,17.3
						s-21.6-5.7-23.3-17.3L-334.1-166.7z M-318.9-149.4c0.6,3.8,5.1,5.7,9.2,5.7s7.7-1.9,7.1-5.7l-2.5-16.9c-0.6-4-5.1-5.8-9.2-5.8
						c-3.9,0-7.6,1.8-7.1,5.5L-318.9-149.4z"/>
				</g>
			</g>
			<g transform="translate(83, 0)">
				<g transform="scale(0.6799999999999997)">
					<path class="st0" d="M-291.3-132.8H-304l-7.1-50.4h12.7L-291.3-132.8z"/>
				</g>
			</g>
			<g transform="translate(94, 0)">
				<g transform="scale(0.6799999999999997)">
					<path class="st0" d="M-258.8-144.4l1.7,11.7h-40.1l-1.7-11.7h13.6l-5.4-38.9h12.9l5.3,38.8h13.7V-144.4z"/>
				</g>
			</g>
			<g transform="translate(114, 0)">
				<g transform="scale(0.6799999999999997)">
					<path class="st0" d="M-276.9-183.3"/>
				</g>
			</g>
			<g transform="translate(126, 0)">
				<g transform="scale(0.6799999999999997)">
					<path class="st0" d="M-227.4-132.8H-239l-24.6-50.4h13.7l4.5,10.1h13.5l1.9-10.1h13.7L-227.4-132.8z M-241-161.8l5.6,14.7h0.5
						l1.5-14.7H-241z"/>
				</g>
			</g>
			<g transform="translate(148, 0)">
				<g transform="scale(0.6799999999999997)">
					<path class="st0" d="M-239.3-183.3h12.7l2.8,20.2l-0.1,9.8l0.3,0.1l3-10.1l8.6-19.9h12.9l7.1,50.4h-12.7l-3.2-22.9l0.1-8.7
						l-0.3-0.1l-2.9,10.1l-9.2,21.5h-12.1L-239.3-183.3z"/>
				</g>
			</g>
			<g transform="translate(170.5, 0.7402688547331433)">
				<g>
					<g>
						<g>
							<rect x="-145.8" y="-124.5" class="st1" width="37.5" height="32.7"/>
							<path class="st0" d="M-125.3-124.5h17l-18.9,32.7l-8.4-14.7L-125.3-124.5z"/>
							<path class="st2" d="M-138.8-112.4l-7-12.1h14L-138.8-112.4z"/>
						</g>
					</g>
				</g>
			</g>
			<g transform="translate(196, 0)">
				<g transform="scale(0.6799999999999997)">
					<path class="st0" d="M-186.3-174.9c3.9-6.1,11.3-9.1,17.4-9.1c10.9,0,19.4,4.9,21.3,14.7c2.3,12.5-6.2,15.9-15,17.5
						c-3.9,0.9-6.4,2.1-6.1,5.1c0.3,2.6,3,3.8,6.2,3.7c2.9-0.1,6.3-1.2,8.4-3.6l9.3,6.4c-4.3,6.3-10,8.1-16.2,8.1
						c-9.2,0-18.4-3.6-20.3-14c-1.8-9.5,5.3-15.9,13.3-17.2c4.1-0.6,8.5-1.9,7.9-5.1c-0.5-2.6-3.5-3.8-6.9-3.8
						c-3.8,0-8,1.6-10.2,4.8L-186.3-174.9z"/>
				</g>
			</g>
			<g transform="translate(216, 0)">
				<g transform="scale(0.6799999999999997)">
					<path class="st0" d="M-124.1-144.4l1.7,11.7h-40.1l-1.7-11.7h13.6l-5.3-38.8h12.9l5.3,38.8H-124.1z"/>
				</g>
			</g>
			<g transform="translate(236, 0)">
				<g transform="scale(0.6799999999999997)">
					<path class="st0" d="M-105.9-132.8h-11.6l-24.6-50.4h13.7l4.5,10.1h13.5l1.9-10.1h13.7L-105.9-132.8z M-119.5-161.8l5.6,14.7
						h0.5l1.5-14.7H-119.5z"/>
				</g>
			</g>
			<g transform="translate(258, 0)">
				<g transform="scale(0.6799999999999997)">
					<path class="st0" d="M-94.6-183.3l2.8,19.9l21.9,30.6h-15l-11.7-17.7l-6.5,17.7h-14.8l13.3-30.6l-2.8-19.9
						C-107.4-183.3-94.6-183.3-94.6-183.3z"/>
				</g>
			</g>
		</g>
	</g>
</symbol>
<use xlink:href="#Logo_Anastay"  width="484.3" height="35.3" x="-242.2" y="-17.6" transform="matrix(1 0 0 -1 242.152 17.646)" style="overflow:visible;"/>
</svg>
